<?xml version="1.0" encoding="utf-8"?>
<!-- Generator: Adobe Illustrator 23.1.0, SVG Export Plug-In . SVG Version: 6.00 Build 0)  -->
<svg version="1.1" id="Layer_1" xmlns="http://www.w3.org/2000/svg" xmlns:xlink="http://www.w3.org/1999/xlink" x="0px" y="0px"
	 viewBox="0 0 121.89 122.11" style="enable-background:new 0 0 121.89 122.11;" xml:space="preserve">
<style type="text/css">
	.st0{fill:#FFFFFF;}
</style>
<g>
	<path class="st0" d="M39.72,107.15c-15.09-0.02-24.59-9.47-24.65-24.67C15,65.65,15.05,48.82,15.05,32c0-1.82,0-3.63,0-5.43
		C8.7,26.19,2.7,30.89,0.97,37.65c-0.65,2.55-0.9,5.26-0.91,7.9c-0.07,18.83-0.07,37.66-0.03,56.48
		c0.03,13.45,6.59,20.04,19.9,20.05c19.99,0.02,39.99,0.06,59.98-0.02c9.34-0.04,16.04-5.72,17.05-14.91c-10.95,0-21.6,0-32.24,0
		C56.38,107.16,48.05,107.17,39.72,107.15z"/>
	<path class="st0" d="M121.8,18.08c-0.06-10.95-7.31-17.99-18.3-18.06c-0.38,0-0.76,0-1.14,0V43c0,0.86-0.26,1.69-0.72,2.37
		c-1.14,1.64-3.22,1.91-4.65,0.6L82.51,32.68L68.04,45.97c-0.59,0.54-1.31,0.83-2.06,0.83c-1.83,0-3.31-1.7-3.31-3.8V0
		C56.3,0,49.93,0,43.56,0.01C31.32,0.04,24.43,6.76,24.14,19.08C24,24.74,24.11,30.4,24.11,36.06c0,13.82-0.03,27.64,0.01,41.46
		c0.04,13.94,6.64,20.56,20.43,20.56c19.48,0.01,38.96,0.03,58.45-0.01c11.63-0.02,18.76-6.97,18.82-18.56
		C121.91,59.04,121.92,38.56,121.8,18.08z"/>
</g>
</svg>
